<?xml version="1.0" ?>
<!-- Uploaded to: SVG Repo, www.svgrepo.com, Generator: SVG Repo Mixer Tools -->
<svg width="800px" height="800px" viewBox="0 0 32 32" xmlns="http://www.w3.org/2000/svg">
<defs>
<style>.cls-1{fill:#5233ff;}.cls-2{fill:#ff64c8;}</style>
</defs>
<title/>
<g data-name="Layer 2" id="Layer_2">
<path class="cls-1" d="M27.12,9,19.18,17a9.23,9.23,0,0,0-1.26-1.57L16.51,14a8.54,8.54,0,0,0-1.57-1.25l7.93-7.94A3,3,0,1,1,27.12,9Z"/>
<path class="cls-2" d="M16.51,26.7,15.1,28.12a3,3,0,0,1-4.25,0L9.44,26.7l2.83-2.83a1,1,0,1,0-1.42-1.41L8,25.29,6.61,23.87l2.83-2.82A1,1,0,1,0,8,19.63L5.2,22.46,3.78,21.05a3,3,0,0,1,0-4.25L5.2,15.39a7,7,0,0,1,9.9,0l1.41,1.41A7,7,0,0,1,16.51,26.7Z"/>
</g>
</svg>